<svg xmlns="http://www.w3.org/2000/svg" viewBox="0 0 148.6 224.69"><defs><style>.cls-1{fill:#231f20;}.cls-2{fill:#009444;}.cls-3{fill:#fff;}</style></defs><g id="Layer_2" data-name="Layer 2"><g id="Layer_5" data-name="Layer 5"><path class="cls-1" d="M133.88,6.41H71.72A14.73,14.73,0,0,0,57,21.13v66H22.23A14.73,14.73,0,0,0,7.51,101.88V210a14.73,14.73,0,0,0,14,14.7c.23,0,.45,0,.68,0H84.44l.63,0a14.73,14.73,0,0,0,14-14.7v-66h34.82l.63,0a14.73,14.73,0,0,0,14-14.7V21.13A14.74,14.74,0,0,0,133.88,6.41Zm0,3.06.6,0-.6,0H71.72l-.6,0,.6,0ZM57,90.22H22.23l-.6,0,.6,0Z"/><path class="cls-2" d="M126.37,137.53H64.2A13.18,13.18,0,0,1,51,124.34V16.25A13.18,13.18,0,0,1,64.2,3.06h62.17a13.18,13.18,0,0,1,13.18,13.19V124.34a13.18,13.18,0,0,1-13.18,13.19Z"/><path class="cls-3" d="M126.37,137.53H64.2a14.73,14.73,0,0,1-14.71-14.72V14.72A14.73,14.73,0,0,1,64.2,0h62.17a14.73,14.73,0,0,1,14.71,14.72V122.81A14.73,14.73,0,0,1,126.37,137.53ZM64.2,3.06A11.67,11.67,0,0,0,52.55,14.72V122.81A11.67,11.67,0,0,0,64.2,134.47h62.17A11.67,11.67,0,0,0,138,122.81V14.72A11.67,11.67,0,0,0,126.37,3.06Z"/><path class="cls-2" d="M76.88,218.28H14.72A13.18,13.18,0,0,1,1.53,205.09V97A13.2,13.2,0,0,1,14.72,83.81H76.88A13.2,13.2,0,0,1,90.07,97V205.09a13.18,13.18,0,0,1-13.19,13.19Z"/><path class="cls-3" d="M76.88,218.28H14.72A14.73,14.73,0,0,1,0,203.56V95.47A14.74,14.74,0,0,1,14.72,80.75H76.88A14.74,14.74,0,0,1,91.6,95.47V203.56A14.73,14.73,0,0,1,76.88,218.28ZM14.72,83.81A11.67,11.67,0,0,0,3.06,95.47V203.56a11.67,11.67,0,0,0,11.66,11.66H76.88a11.67,11.67,0,0,0,11.66-11.66V95.47A11.67,11.67,0,0,0,76.88,83.81Z"/></g></g></svg>