<svg xmlns="http://www.w3.org/2000/svg" viewBox="0 0 169.92 232.18"><defs><style>.cls-1{fill:#231f20;}.cls-2{fill:#c62d27;}.cls-3{fill:#fff;}.cls-4{fill:#1164b0;}.cls-5{fill:#e5c91f;}.cls-6{fill:#009444;}</style></defs><g id="Layer_2" data-name="Layer 2"><g id="Layer_4" data-name="Layer 4"><path class="cls-1" d="M156.17,7.38h-58A13.75,13.75,0,0,0,84.39,20.89h-44A13.76,13.76,0,0,0,26.62,34.63v69.13H22.89A13.76,13.76,0,0,0,9.14,117.5V218.44a13.76,13.76,0,0,0,13.75,13.74h58a13.76,13.76,0,0,0,13.74-13.51h44a13.76,13.76,0,0,0,13.74-13.74V135.8h3.73a13.76,13.76,0,0,0,13.75-13.74V21.12A13.76,13.76,0,0,0,156.17,7.38Z"/><path class="cls-2" d="M147,127H89a12.33,12.33,0,0,1-12.31-12.32V13.74A12.33,12.33,0,0,1,89,1.43H147a12.33,12.33,0,0,1,12.32,12.31V114.68A12.33,12.33,0,0,1,147,127Z"/><path class="cls-3" d="M147,128.43H89a13.77,13.77,0,0,1-13.74-13.75V13.74A13.76,13.76,0,0,1,89,0H147a13.77,13.77,0,0,1,13.75,13.74V114.68A13.77,13.77,0,0,1,147,128.43ZM89,2.86A10.89,10.89,0,0,0,78.1,13.74V114.68A10.9,10.9,0,0,0,89,125.57H147a10.91,10.91,0,0,0,10.89-10.89V13.74A10.9,10.9,0,0,0,147,2.86Z"/><path class="cls-4" d="M89.27,140.51h-58A12.33,12.33,0,0,1,18.9,128.2V27.26A12.33,12.33,0,0,1,31.22,14.94H89.27a12.33,12.33,0,0,1,12.31,12.32V128.2a12.33,12.33,0,0,1-12.31,12.31Z"/><path class="cls-3" d="M89.27,141.94h-58A13.76,13.76,0,0,1,17.48,128.2V27.26A13.76,13.76,0,0,1,31.22,13.51H89.27A13.76,13.76,0,0,1,103,27.26V128.2A13.76,13.76,0,0,1,89.27,141.94Zm-58-125.57A10.91,10.91,0,0,0,20.33,27.26V128.2a10.9,10.9,0,0,0,10.89,10.88H89.27a10.89,10.89,0,0,0,10.88-10.88V27.26A10.9,10.9,0,0,0,89.27,16.37Z"/><path class="cls-5" d="M129.56,209.86h-58a12.31,12.31,0,0,1-12.32-12.31V96.61A12.31,12.31,0,0,1,71.51,84.3h58.05a12.31,12.31,0,0,1,12.31,12.31V197.55a12.31,12.31,0,0,1-12.31,12.31Z"/><path class="cls-3" d="M129.56,211.29h-58a13.75,13.75,0,0,1-13.74-13.74V96.61A13.75,13.75,0,0,1,71.51,82.87h58.05A13.75,13.75,0,0,1,143.3,96.61V197.55A13.75,13.75,0,0,1,129.56,211.29Zm-58-125.56A10.9,10.9,0,0,0,60.62,96.61V197.55a10.9,10.9,0,0,0,10.89,10.88h58.05a10.89,10.89,0,0,0,10.88-10.88V96.61a10.89,10.89,0,0,0-10.88-10.88Z"/><path class="cls-6" d="M71.79,223.38h-58A12.33,12.33,0,0,1,1.43,211.06V110.13A12.33,12.33,0,0,1,13.74,97.81H71.79a12.33,12.33,0,0,1,12.32,12.32V211.06a12.33,12.33,0,0,1-12.32,12.32Z"/><path class="cls-3" d="M71.79,224.81h-58A13.77,13.77,0,0,1,0,211.06V110.13A13.77,13.77,0,0,1,13.74,96.38H71.79a13.77,13.77,0,0,1,13.75,13.75V211.06A13.77,13.77,0,0,1,71.79,224.81Zm-58-125.57A10.89,10.89,0,0,0,2.86,110.13V211.06A10.89,10.89,0,0,0,13.74,222H71.79a10.9,10.9,0,0,0,10.89-10.89V110.13A10.9,10.9,0,0,0,71.79,99.24Z"/></g></g></svg>