<svg xmlns="http://www.w3.org/2000/svg" viewBox="0 0 166.82 245.59"><defs><style>.cls-1{fill:#231f20;}.cls-1,.cls-2{stroke:#231f20;stroke-miterlimit:10;stroke-width:4px;}.cls-2{fill:#fff;}</style></defs><g id="Layer_2" data-name="Layer 2"><g id="Layer_2-2" data-name="Layer 2"><path class="cls-1" d="M164.65,7.17,88,12.87l16.44,16.45L48.76,85a53.79,53.79,0,0,0,0,76.06L142.5,67.35,159,83.8Z"/><path class="cls-1" d="M11.85,243.42l76.63-5.7L72,221.27l55.71-55.71a53.77,53.77,0,0,0,0-76.06L34,183.24,17.55,166.79Z"/><path class="cls-2" d="M155,2.17,78.34,7.87,94.79,24.32,39.08,80a53.78,53.78,0,0,0,0,76.07l93.74-93.74,16.45,16.44Z"/><path class="cls-2" d="M2.17,238.42l76.62-5.71L62.35,216.27l55.71-55.71a53.8,53.8,0,0,0,0-76.07L24.32,178.24,7.87,161.79Z"/></g></g></svg>