<svg xmlns="http://www.w3.org/2000/svg" viewBox="0 0 166.82 245.59"><defs><style>.cls-1{fill:#231f20;}.cls-2{fill:#e5c91f;}</style></defs><g id="Layer_2" data-name="Layer 2"><g id="Layer_2-2" data-name="Layer 2"><path class="cls-1" d="M164.65,7.17,126.34,10,88,12.87l8.22,8.23,8.22,8.22L76.62,57.17,48.76,85a53.79,53.79,0,0,0,0,76.06l46.87-46.87L142.5,67.35l8.23,8.22L159,83.8l2.85-38.32Z"/><path class="cls-1" d="M48.76,163.92l-.71-.7-.7-.71a55.84,55.84,0,0,1,0-78.9L74.49,56.47l27.15-27.15-9.06-9.06-9-9.06,41.64-3.1L166.82,5l-3.1,41.65-3.1,41.64-9.06-9.05-9.06-9.06L95.63,117.05ZM92.52,14.54l7.39,7.39,7.39,7.39L78.74,57.88,50.18,86.44a51.85,51.85,0,0,0-1.39,71.8l46.86-46.86L142.5,64.52l7.39,7.39,7.39,7.39,2.6-35,2.61-35-35,2.6Z"/><path class="cls-1" d="M11.85,243.42l38.31-2.85,38.32-2.85-8.23-8.23L72,221.27l27.86-27.85,27.85-27.86a53.79,53.79,0,0,0,0-76.06L80.87,136.37,34,183.24,25.78,175l-8.23-8.23L14.7,205.11Z"/><path class="cls-1" d="M9.68,245.59l3.1-41.65,3.1-41.65,9.06,9.06L34,180.41l46.87-46.87,46.87-46.87.71.7.7.71a55.84,55.84,0,0,1,0,78.9L102,194.12,74.86,221.27l9.06,9.06L93,239.39l-41.65,3.1Zm9.54-74.3-2.6,35-2.6,35,35-2.6L84,236l-7.39-7.38-7.39-7.39,28.56-28.56,28.57-28.56a51.86,51.86,0,0,0,1.38-71.8L80.86,139.21,34,186.07l-7.39-7.39Z"/><path class="cls-2" d="M155,2.17,116.66,5,78.34,7.87l8.23,8.22,8.22,8.23L66.93,52.17,39.08,80a53.8,53.8,0,0,0,0,76.07L86,109.22l46.87-46.87L141,70.57l8.23,8.22,2.85-38.31Z"/><path class="cls-1" d="M39.08,158.92l-.71-.71-.7-.7a55.84,55.84,0,0,1,0-78.9L64.81,51.46,92,24.32,82.9,15.26,73.84,6.2l41.65-3.1L157.14,0,154,41.65l-3.1,41.64-9.06-9.05-9.06-9.06L86,112.05ZM82.84,9.54l7.39,7.39,7.39,7.39L69.05,52.88,40.49,81.44a51.86,51.86,0,0,0-1.38,71.8L86,106.38l46.86-46.86,7.39,7.39,7.39,7.38,2.6-35,2.6-35-35,2.61Z"/><path class="cls-2" d="M2.17,238.42l38.31-2.85,38.31-2.86-8.22-8.22-8.22-8.22L90.2,188.42l27.86-27.86a53.8,53.8,0,0,0,0-76.07L71.19,131.36,24.32,178.24,16.09,170l-8.22-8.22L5,200.11Z"/><path class="cls-1" d="M0,240.59l3.1-41.65,3.1-41.65,9.06,9.06,9.06,9.06,46.87-46.87,46.87-46.87.71.7.7.71a55.84,55.84,0,0,1,0,78.9L92.33,189.12,65.18,216.27l9.06,9.06,9.05,9-41.64,3.11Zm9.54-74.3-2.6,35-2.61,35,35-2.6,35-2.61-7.39-7.38-7.39-7.39,28.56-28.56,28.56-28.56A51.85,51.85,0,0,0,118,87.35L71.17,134.21,24.32,181.06l-7.39-7.38Z"/></g></g></svg>