<svg xmlns="http://www.w3.org/2000/svg" viewBox="0 0 237.23 242.8"><defs><style>.cls-1{fill:#231f20;}.cls-2{fill:#fff;}</style></defs><g id="Layer_2" data-name="Layer 2"><g id="Layer_3" data-name="Layer 3"><path class="cls-1" d="M207.58,32.46c-20.72-20.16-49-29.28-79.74-25.68-30,3.52-58.73,18.84-81,43.13s-35.4,54.77-37.07,85.84c-1.72,31.81,8.75,60.44,29.47,80.6C57,233.63,80.37,242.8,106,242.8a112.56,112.56,0,0,0,13-.77c30-3.52,58.74-18.84,81-43.13s35.39-54.77,37.07-85.84C238.76,81.25,228.29,52.62,207.58,32.46Zm-175,104.59C34,111.53,45,86.32,63.48,66.07s42.31-33,66.94-35.89a88.55,88.55,0,0,1,10.33-.61,74.21,74.21,0,0,1,38.49,10.27L49.77,193.59C37.49,178.71,31.43,158.93,32.61,137.05Zm150.76,45.69c-18.54,20.25-42.31,33-66.94,35.89-17.49,2.05-33.88-1.1-47.58-8.93L198,56.35C224.29,89.61,218.62,144.22,183.37,182.74Z"/><path class="cls-2" d="M199.45,28c-20.72-20.16-49-29.28-79.74-25.68-30,3.52-58.73,18.83-81,43.12S3.35,100.17,1.68,131.23C0,163.05,10.43,191.67,31.15,211.84c17.76,17.27,41.1,26.44,66.73,26.44a110.54,110.54,0,0,0,13-.77c30-3.52,58.73-18.83,81-43.12s35.4-54.78,37.07-85.84C230.63,76.73,220.17,48.11,199.45,28Zm-175,104.59c1.38-25.52,12.34-50.73,30.88-71s42.31-33,66.94-35.89a88.38,88.38,0,0,1,10.32-.61,74.15,74.15,0,0,1,38.49,10.27L41.64,189.07C29.36,174.2,23.31,154.42,24.48,132.54Zm150.76,45.68c-18.53,20.26-42.3,33-66.93,35.89-17.5,2.06-33.88-1.09-47.58-8.93L189.87,51.83C216.16,85.09,210.49,139.71,175.24,178.22Z"/><path class="cls-1" d="M97.88,239.78c-26.27,0-49.71-9.29-67.77-26.87-21-20.47-31.66-49.5-29.93-81.76,1.69-31.41,15-62.22,37.46-86.77s51.56-40,81.9-43.6c31.16-3.66,59.91,5.61,81,26.09s31.66,49.51,29.92,81.76c-1.69,31.41-15,62.23-37.46,86.77s-51.56,40-81.9,43.6A113.06,113.06,0,0,1,97.88,239.78ZM132.71,3a109.6,109.6,0,0,0-12.82.76c-29.62,3.48-58,18.62-80,42.65s-35,54.19-36.68,84.91c-1.69,31.37,8.62,59.59,29,79.44,17.49,17,40.21,26,65.68,26a109.13,109.13,0,0,0,12.83-.76c29.63-3.47,58.05-18.62,80-42.64s35-54.19,36.67-84.91c1.69-31.38-8.61-59.59-29-79.45C180.93,12,158,3,132.71,3ZM98,216.22a76.07,76.07,0,0,1-38-9.74l-1.56-.89L189.9,49.46,191,50.9c27.16,34.34,20.84,89.52-14.69,128.34-18.78,20.52-42.88,33.43-67.87,36.36A88.49,88.49,0,0,1,98,216.22Zm-35-11.47c13.17,7.08,28.71,9.8,45.08,7.87,24.27-2.84,47.71-15.42,66-35.41h0c34-37.2,40.61-89.69,15.67-123ZM41.63,191.41,40.49,190C27.84,174.7,21.78,154.79,23,132.46c1.39-25.87,12.49-51.41,31.26-71.91s42.88-33.44,67.87-36.37c18.06-2.12,35.57,1.34,49.77,9.86l1.51.9ZM24.48,132.54l1.5.08c-1.12,20.89,4.3,39.55,15.69,54.09l127.15-151c-13.35-7.53-29.59-10.53-46.35-8.56C98.2,30,74.76,42.58,56.47,62.57S27.34,107.45,26,132.62Z"/></g></g></svg>