<svg xmlns="http://www.w3.org/2000/svg" xmlns:xlink="http://www.w3.org/1999/xlink" viewBox="0 0 267.65 267.65"><defs><style>.cls-1{fill:none;}.cls-2{fill:#fff;}.cls-3{clip-path:url(#clip-path);}.cls-4{fill:#1164b0;}.cls-5{fill:#c62d27;}.cls-6{fill:#009444;}.cls-7{fill:#e5c91f;}</style><clipPath id="clip-path" transform="translate(45.91 19.17)"><path class="cls-1" d="M108.62,3.62c41.4,0,63.56,34.71,63.56,56v44.88c0,35.83-25.92,121.15-104.55,121.15-46.12,0-64-38.9-64-59l.16-52.07C3.81,76,42.54,3.62,108.62,3.62Z"/></clipPath></defs><g id="Layer_2" data-name="Layer 2"><g id="Layer_6" data-name="Layer 6"><path class="cls-2" d="M109.51,0c43.2,0,66.32,35.81,66.32,57.82v46.3c0,37-27.05,125-109.07,125C18.64,229.11,0,189,0,168.28l.17-53.72C.17,74.65,40.58,0,109.51,0Z" transform="translate(45.91 19.17)"/><g class="cls-3"><rect class="cls-4" width="133.82" height="133.82"/><rect class="cls-5" x="133.82" width="133.82" height="133.82"/><rect class="cls-6" y="133.82" width="133.82" height="133.82"/><rect class="cls-7" x="133.82" y="133.82" width="133.82" height="133.82"/></g></g></g></svg>